<?xml version="1.0" encoding="UTF-8"?>
<svg xmlns="http://www.w3.org/2000/svg" id="Ebene_1" data-name="Ebene 1" viewBox="0 0 785.51 255.12">
  <defs>
    <style>.cls-1{fill:#ffe143;}.cls-2{fill:#00577a;}</style>
  </defs>
  <polygon class="cls-1" points="41.65 108.92 0 85.29 0 110.56 41.73 134.24 41.75 134.21 41.65 134.04 41.65 108.92"></polygon>
  <polygon class="cls-1" points="41.65 150.86 41.66 150.85 0 127.21 0 152.48 41.73 176.16 41.65 176.03 41.65 150.86"></polygon>
  <polygon class="cls-1" points="52.27 72.91 52.58 72.36 0 42.52 0 67.79 30.89 85.32 52.27 72.91"></polygon>
  <polygon class="cls-2" points="41.65 108.88 41.65 108.92 41.65 134.04 41.75 134.21 41.75 134.23 150.34 71.21 150.34 45.8 41.65 108.88"></polygon>
  <polygon class="cls-2" points="41.66 150.85 41.65 150.86 41.65 176.03 41.73 176.16 41.75 176.21 150.34 113.2 150.34 87.79 41.66 150.85"></polygon>
  <polygon class="cls-2" points="51.16 212.6 150.34 155.04 150.34 129.63 29.21 199.93 51.16 212.6"></polygon>
  <path class="cls-2" d="M211.29,116.53V63.92h14.39c10.31,0,17,3.72,17,12.35v3.36c0,3.8-2.12,6.43-5.78,8,5.48,1.54,8,4.83,8,9.87v6.65c0,8.47-6.72,12.42-17.25,12.42Zm10.3-44.72V85.25h4.09c4.53,0,6.65-2.19,6.65-5.91V77.73c0-4.09-2-5.92-6.65-5.92Zm0,20.75v16.08h6c4.24,0,6.94-2,6.94-6.21V98c0-3.73-2.7-5.41-6.94-5.41Z" transform="translate(0.36 -0.14)"></path>
  <path class="cls-2" d="M252.22,116.53V63.92h14.46c12.65,0,17.4,5.33,17.4,14.32v6.5c0,5.41-2.12,9.43-7.31,11.48l12.06,20.31H277.28L266.76,97.75h-4.24v18.78Zm10.3-44.14V89.27h4.38c4.46,0,6.87-2,6.87-6.21V78.82c0-4.38-2.41-6.43-6.72-6.43Z" transform="translate(0.36 -0.14)"></path>
  <path class="cls-2" d="M323,116.53H293.29V63.92H323v8.47H303.59V85.33H318.5V93.8H303.59v14.25H323Z" transform="translate(0.36 -0.14)"></path>
  <path class="cls-2" d="M350.15,100.16l-10.53-20,.22,6.65v29.74H330.2V63.92h10.88L353.65,88l12.64-24.11h10.89v52.61h-9.79V86.79l.22-6.58-10.52,20Z" transform="translate(0.36 -0.14)"></path>
  <path class="cls-2" d="M416.29,116.53H386.62V63.92h29.67v8.47H396.92V85.33h14.91V93.8H396.92v14.25h19.37Z" transform="translate(0.36 -0.14)"></path>
  <path class="cls-2" d="M423.53,116.53V63.92H438c12.64,0,17.39,5.33,17.39,14.32v6.5c0,5.41-2.11,9.43-7.3,11.48l12.05,20.31H448.59L438.07,97.75h-4.24v18.78Zm10.3-44.14V89.27h4.38c4.46,0,6.87-2,6.87-6.21V78.82c0-4.38-2.41-6.43-6.72-6.43Z" transform="translate(0.36 -0.14)"></path>
  <path class="cls-2" d="M265.29,138.13l-9.43,52.62H244.1l-7.53-37.13L229,190.75H217.28l-9.43-52.62h10.09l5.7,41.73,8.18-41.73h9.43l8.18,41.8,5.77-41.8Z" transform="translate(0.36 -0.14)"></path>
  <path class="cls-2" d="M301,190.75H271.36V138.13H301v8.48H281.67v12.93h14.9V168h-14.9v14.25H301Z" transform="translate(0.36 -0.14)"></path>
  <path class="cls-2" d="M308.27,190.75V138.13h14.47c12.64,0,17.39,5.34,17.39,14.33V159c0,5.41-2.12,9.42-7.31,11.47l12.06,20.32H333.33L322.81,172h-4.24v18.78Zm10.3-44.14v16.88H323c4.46,0,6.87-2,6.87-6.21V153c0-4.38-2.41-6.43-6.73-6.43Z" transform="translate(0.36 -0.14)"></path>
  <path class="cls-2" d="M355.77,190.75V146.61H344.16v-8.48h33.46v8.48H366.08v44.14Z" transform="translate(0.36 -0.14)"></path>
  <path class="cls-2" d="M413.43,177c0,10.38-5.33,14.47-15.05,14.47H395c-9.14,0-14.25-3-14.25-10.67V174h9.86v3.8c0,4.53,1.54,5.26,4.75,5.26h2.78c3.22,0,5.26-.58,5.26-5.48v-3.5c0-2.56-1.17-4.24-5-5L392.76,168c-7.82-1.61-11.33-5.12-11.33-14.69v-2.7c0-8.7,5.19-13.16,14.39-13.16h1.32c9.13,0,14.83,3.87,14.83,10.67v5.41H402v-3c0-3.43-1.47-4.67-4.75-4.67H396c-3.28,0-4.53,1.17-4.53,5.4v1.68c0,4,.73,5,4.39,5.78l5,1.09c9.86,2.27,12.56,5.63,12.56,14.76Z" transform="translate(0.36 -0.14)"></path>
  <path class="cls-2" d="M436.9,182.93c3.87,0,6.35-1.39,6.35-4.68v-6.5H453v8.33c0,7.23-6.5,11.4-16.66,11.4-9.93,0-16.15-4.17-16.15-11.4V148.8c0-7.23,6.43-11.4,16.74-11.4,9.79,0,16.07,4.17,16.07,11.4v8.33h-9.72v-6.5c0-3.22-2.48-4.68-6.35-4.68-4.39,0-6.43,1.46-6.43,4.68v27.62C430.47,181.54,432.51,182.93,436.9,182.93Z" transform="translate(0.36 -0.14)"></path>
  <path class="cls-2" d="M461.24,190.75V138.13h10.3v21.41h13.88V138.13h10.31v52.62H485.42V168H471.54v22.73Z" transform="translate(0.36 -0.14)"></path>
  <path class="cls-2" d="M534.54,190.75H505.16V138.13h10.3v44.14h19.08Z" transform="translate(0.36 -0.14)"></path>
  <path class="cls-2" d="M540,190.75V138.13h10.3v52.62Z" transform="translate(0.36 -0.14)"></path>
  <path class="cls-2" d="M589.35,190.75H559.68V138.13h29.67v8.48H570v12.93h14.9V168H570v14.25h19.36Z" transform="translate(0.36 -0.14)"></path>
  <path class="cls-2" d="M595.86,190.75V147.27c0-8.63,5.26-12.06,15.56-12.06,9.87,0,16.08,3.58,16.08,11.47v4.75c0,3.87-1.61,6.51-4.46,8,4.24,2,6.65,5.55,6.65,10.89v8c0,8.48-6.28,12.43-16.22,12.43h-3.73V182.2h3.73c4,0,6.5-1.68,6.5-5.7V171c0-4.32-2.34-6.14-6.21-6.14h-4V157.5h2.12c4.31,0,5.92-2.49,5.92-6v-2.2c0-3.94-1.53-5.48-5-5.48h-1c-3.88,0-5.63,2.27-5.63,5.48v41.44Z" transform="translate(0.36 -0.14)"></path>
  <path class="cls-2" d="M637.22,190.75V138.13h29.67v8.48H647.53v15.13h14.9v8.47h-14.9v20.54Z" transform="translate(0.36 -0.14)"></path>
  <path class="cls-2" d="M664.85,190.75l14.47-52.62h12.2l14.32,52.62h-10.3l-2.63-10.67H677.78l-2.63,10.67ZM680,171h10.74l-5.34-21.78Z" transform="translate(0.36 -0.14)"></path>
  <path class="cls-2" d="M726.31,182.93c3.88,0,6.36-1.39,6.36-4.68v-6.5h9.72v8.33c0,7.23-6.5,11.4-16.66,11.4-9.94,0-16.15-4.17-16.15-11.4V148.8c0-7.23,6.43-11.4,16.73-11.4,9.79,0,16.08,4.17,16.08,11.4v8.33h-9.72v-6.5c0-3.22-2.48-4.68-6.36-4.68-4.38,0-6.43,1.46-6.43,4.68v27.62C719.88,181.54,721.93,182.93,726.31,182.93Z" transform="translate(0.36 -0.14)"></path>
  <path class="cls-2" d="M750.65,190.75V138.13H761v21.41h13.89V138.13h10.3v52.62h-10.3V168H761v22.73Z" transform="translate(0.36 -0.14)"></path>
  <rect class="cls-2" x="179.8" width="1.97" height="255.12"></rect>
</svg>
